<svg width="22" height="22" viewBox="0 0 22 22" fill="none" xmlns="http://www.w3.org/2000/svg">
<path d="M15.0838 6.83373C15.2774 6.64933 15.5352 6.54738 15.8026 6.54941C16.0701 6.55143 16.3262 6.65726 16.5171 6.84458C16.708 7.03189 16.8186 7.28603 16.8257 7.55337C16.8328 7.82071 16.7357 8.08034 16.555 8.27748L11.0688 15.1387C10.9744 15.2403 10.8606 15.3219 10.734 15.3785C10.6074 15.4351 10.4707 15.4656 10.3321 15.4681C10.1935 15.4707 10.0557 15.4453 9.92717 15.3934C9.79859 15.3416 9.68179 15.2643 9.58375 15.1662L5.9455 11.528C5.84418 11.4336 5.76292 11.3197 5.70655 11.1932C5.65019 11.0667 5.61988 10.9302 5.61744 10.7917C5.615 10.6532 5.64047 10.5157 5.69233 10.3873C5.7442 10.2589 5.8214 10.1422 5.91933 10.0443C6.01725 9.94638 6.1339 9.86918 6.26231 9.81731C6.39072 9.76545 6.52826 9.73997 6.66672 9.74242C6.80519 9.74486 6.94174 9.77517 7.06824 9.83153C7.19474 9.8879 7.30859 9.96916 7.403 10.0705L10.2823 12.9484L15.0576 6.86398L15.0838 6.83373Z" fill="#101010"/>
</svg>
