<svg width="20" height="18" viewBox="0 0 20 18" fill="none" xmlns="http://www.w3.org/2000/svg">
<path fill-rule="evenodd" clip-rule="evenodd" d="M13.2729 0.273646C13.4097 0.238432 13.5538 0.24262 13.6884 0.28573L18.5284 1.83572L18.5474 1.84209C18.8967 1.96436 19.1936 2.19167 19.4024 2.4875C19.5891 2.75202 19.7309 3.08694 19.7489 3.46434C19.7494 3.47622 19.7497 3.4881 19.7497 3.49998V15.5999C19.7625 15.8723 19.7102 16.1395 19.609 16.3754C19.6059 16.3827 19.6026 16.39 19.5993 16.3972C19.476 16.6613 19.3017 16.8663 19.1098 17.0262C19.1023 17.0324 19.0947 17.0385 19.087 17.0445C18.8513 17.2258 18.5774 17.3363 18.2988 17.3734L18.2927 17.3743C18.0363 17.4063 17.7882 17.3792 17.5622 17.3133C17.5379 17.3081 17.5138 17.3016 17.4901 17.294L13.4665 16.0004L6.75651 17.7263C6.62007 17.7614 6.47649 17.7574 6.34221 17.7147L1.47223 16.1647C1.46543 16.1625 1.45866 16.1603 1.45193 16.1579C1.0871 16.0302 0.813939 15.7971 0.613929 15.5356C0.608133 15.528 0.602481 15.5203 0.596973 15.5125C0.395967 15.2278 0.277432 14.8905 0.260536 14.5357C0.259972 14.5238 0.259689 14.5119 0.259689 14.5V2.39007C0.246699 2.11286 0.301239 1.83735 0.420015 1.58283C0.544641 1.31578 0.724533 1.10313 0.942417 0.93553C1.17424 0.757204 1.45649 0.6376 1.7691 0.61312C2.03626 0.583264 2.30621 0.616234 2.56047 0.712834L6.56277 1.99963L13.2729 0.273646ZM13.437 1.78025L6.72651 3.50634C6.58929 3.54162 6.44493 3.53736 6.31011 3.49398L2.08011 2.13402C2.06359 2.1287 2.04725 2.12282 2.03113 2.11637C2.00054 2.10413 1.96854 2.09972 1.93273 2.10419C1.91736 2.10611 1.90194 2.10756 1.88649 2.10852C1.88649 2.10852 1.88436 2.10866 1.88088 2.11001C1.8771 2.11149 1.86887 2.11532 1.85699 2.12447C1.81487 2.15686 1.79467 2.18421 1.77929 2.21715C1.76189 2.25446 1.75611 2.28942 1.75823 2.32321C1.7592 2.33879 1.75969 2.35439 1.75969 2.36999V14.4772C1.76448 14.5336 1.78316 14.5879 1.81511 14.6367C1.86704 14.7014 1.90866 14.7272 1.94108 14.7398L6.59169 16.2199L13.3028 14.4937C13.44 14.4584 13.5844 14.4626 13.7192 14.506L17.8938 15.8482C17.9184 15.8537 17.9428 15.8605 17.9669 15.8685C18.0209 15.8865 18.0669 15.8902 18.1034 15.8862C18.1214 15.8833 18.1425 15.8759 18.1629 15.8623C18.1981 15.8309 18.2196 15.8024 18.2346 15.7738C18.2473 15.7399 18.2533 15.7014 18.2511 15.6668C18.2502 15.6512 18.2497 15.6356 18.2497 15.62V3.52464C18.2453 3.48222 18.2258 3.42174 18.1769 3.3525C18.147 3.3102 18.1062 3.2784 18.0582 3.26022L13.437 1.78025Z" fill="#101010"/>
<path fill-rule="evenodd" clip-rule="evenodd" d="M6.56055 2.01999C6.97473 2.01999 7.31055 2.35577 7.31055 2.76999V16.92C7.31055 17.3342 6.97473 17.67 6.56055 17.67C6.14631 17.67 5.81055 17.3342 5.81055 16.92V2.76999C5.81055 2.35577 6.14631 2.01999 6.56055 2.01999Z" fill="#101010"/>
<path fill-rule="evenodd" clip-rule="evenodd" d="M13.4902 0.329987C13.9045 0.329987 14.2402 0.665771 14.2402 1.07999V15.23C14.2402 15.6442 13.9045 15.98 13.4902 15.98C13.0761 15.98 12.7402 15.6442 12.7402 15.23V1.07999C12.7402 0.665771 13.0761 0.329987 13.4902 0.329987Z" fill="#101010"/>
</svg>
