<svg width="15" height="16" viewBox="0 0 15 16" fill="none" xmlns="http://www.w3.org/2000/svg">
<g clip-path="url(#clip0_1_5310)">
<path d="M7.5 0.5C3.35476 0.5 0 3.85438 0 8C0 12.1452 3.35438 15.5 7.5 15.5C11.6452 15.5 15 12.1456 15 8C15 3.85476 11.6456 0.5 7.5 0.5ZM7.5 14.4535C3.94154 14.4535 1.04651 11.5585 1.04651 8C1.04651 4.44151 3.94154 1.54651 7.5 1.54651C11.0585 1.54651 13.9535 4.44151 13.9535 8C13.9535 11.5585 11.0585 14.4535 7.5 14.4535Z" fill="#737373"/>
<path d="M7.27764 9.98999C6.863 9.98999 6.52734 10.3355 6.52734 10.7501C6.52734 11.1549 6.85313 11.5103 7.27764 11.5103C7.70215 11.5103 8.03777 11.1549 8.03777 10.7501C8.03777 10.3355 7.69225 9.98999 7.27764 9.98999Z" fill="#737373"/>
<path d="M7.40578 4.2345C6.07301 4.2345 5.46094 5.02431 5.46094 5.5574C5.46094 5.94242 5.78672 6.12013 6.05326 6.12013C6.58638 6.12013 6.3692 5.35994 7.37616 5.35994C7.86976 5.35994 8.26468 5.57714 8.26468 6.03127C8.26468 6.56436 7.71182 6.8704 7.38603 7.14681C7.09972 7.39358 6.7246 7.79837 6.7246 8.6474C6.7246 9.16074 6.86282 9.30883 7.26756 9.30883C7.75128 9.30883 7.85001 9.09165 7.85001 8.90404C7.85001 8.3907 7.85988 8.09454 8.40287 7.67002C8.66941 7.46272 9.50854 6.79138 9.50854 5.8634C9.50854 4.93542 8.66941 4.2345 7.40578 4.2345Z" fill="#737373"/>
</g>
<defs>
<clipPath id="clip0_1_5310">
<rect width="15" height="15" fill="white" transform="translate(0 0.5)"/>
</clipPath>
</defs>
</svg>
