<svg width="24" height="24" viewBox="0 0 24 24" fill="none" xmlns="http://www.w3.org/2000/svg">
<path d="M17 14.5333C16.012 14.5333 15.1413 15.0194 14.5944 15.7585L9.86633 13.3375C9.94483 13.0699 10 12.7926 10 12.5C10 12.1031 9.91863 11.7258 9.77807 11.3788L14.7262 8.40121C15.2769 9.04747 16.0863 9.46668 17 9.46668C18.6543 9.46668 20 8.12098 20 6.46668C20 4.81237 18.6543 3.46667 17 3.46667C15.3457 3.46667 14 4.81237 14 6.46668C14 6.84791 14.0785 7.20954 14.2087 7.54528L9.24583 10.5316C8.69563 9.90454 7.8979 9.50001 7 9.50001C5.3457 9.50001 4 10.8457 4 12.5C4 14.1543 5.3457 15.5 7 15.5C8.00433 15.5 8.8897 14.9997 9.4345 14.2398L14.147 16.653C14.0602 16.9332 14 17.225 14 17.5333C14 19.1876 15.3457 20.5333 17 20.5333C18.6543 20.5333 20 19.1876 20 17.5333C20 15.879 18.6543 14.5333 17 14.5333Z" fill="#101010"/>
</svg>
