<svg width="14" height="14" viewBox="0 0 14 14" fill="none" xmlns="http://www.w3.org/2000/svg">
<g clip-path="url(#clip0_13_17797)">
<path fill-rule="evenodd" clip-rule="evenodd" d="M1.6493 0.447229C1.8024 0.294356 1.98624 0.175767 2.18865 0.0993199C2.39105 0.0228727 2.60738 -0.00968693 2.82332 0.00379876C3.03926 0.0172844 3.24986 0.0765075 3.44118 0.177543C3.6325 0.278579 3.80016 0.41912 3.93305 0.589854L5.50367 2.6076C5.79155 2.97773 5.89305 3.45985 5.7793 3.91485L5.30067 5.8311C5.2761 5.93036 5.27752 6.03428 5.3048 6.13283C5.33209 6.23138 5.38431 6.32124 5.45642 6.39373L7.6063 8.5436C7.67888 8.61587 7.76888 8.66817 7.8676 8.69546C7.96632 8.72275 8.07041 8.72409 8.1698 8.69935L10.0852 8.22073C10.3097 8.16491 10.544 8.16072 10.7704 8.20846C10.9969 8.25619 11.2095 8.35462 11.3924 8.49635L13.4102 10.0661C14.1355 10.6305 14.202 11.7024 13.5528 12.3507L12.648 13.2555C12.0005 13.903 11.0328 14.1874 10.1307 13.8697C7.82126 13.0582 5.72465 11.7363 3.99692 10.0022C2.263 8.27476 0.941032 6.17845 0.129424 3.86935C-0.187326 2.9681 0.0970488 1.99948 0.744549 1.35198L1.6493 0.447229Z" fill="white"/>
</g>
<defs>
<clipPath id="clip0_13_17797">
<rect width="14" height="14" fill="white"/>
</clipPath>
</defs>
</svg>
