<svg width="14" height="16" viewBox="0 0 14 16" fill="none" xmlns="http://www.w3.org/2000/svg">
<path d="M6.99935 8.49967C4.88602 8.49967 3.16602 6.77967 3.16602 4.66634C3.16602 2.55301 4.88602 0.833008 6.99935 0.833008C9.11268 0.833008 10.8327 2.55301 10.8327 4.66634C10.8327 6.77967 9.11268 8.49967 6.99935 8.49967ZM6.99935 1.83301C5.43935 1.83301 4.16602 3.10634 4.16602 4.66634C4.16602 6.22634 5.43935 7.49967 6.99935 7.49967C8.55935 7.49967 9.83268 6.22634 9.83268 4.66634C9.83268 3.10634 8.55935 1.83301 6.99935 1.83301Z" fill="#101010"/>
<path d="M12.7267 15.1667C12.4534 15.1667 12.2267 14.94 12.2267 14.6667C12.2267 12.3667 9.88013 10.5 7.00013 10.5C4.1201 10.5 1.77344 12.3667 1.77344 14.6667C1.77344 14.94 1.54677 15.1667 1.27344 15.1667C1.0001 15.1667 0.773438 14.94 0.773438 14.6667C0.773438 11.82 3.56676 9.5 7.00013 9.5C10.4335 9.5 13.2267 11.82 13.2267 14.6667C13.2267 14.94 13.0001 15.1667 12.7267 15.1667Z" fill="#101010"/>
</svg>
