<svg width="10" height="14" viewBox="0 0 10 14" fill="none" xmlns="http://www.w3.org/2000/svg">
<path d="M8.5 5V3.355C8.49868 2.4656 8.14478 1.61302 7.51588 0.984118C6.88698 0.355219 6.0344 0.00132252 5.145 0H4.855C3.9656 0.00132252 3.11302 0.355219 2.48412 0.984118C1.85522 1.61302 1.50132 2.4656 1.5 3.355V5C1.10218 5 0.720644 5.15804 0.43934 5.43934C0.158035 5.72064 0 6.10218 0 6.5V11.15C0.00132189 11.9055 0.302013 12.6296 0.836206 13.1638C1.3704 13.698 2.09454 13.9987 2.85 14H7.15C7.90546 13.9987 8.6296 13.698 9.16379 13.1638C9.69799 12.6296 9.99868 11.9055 10 11.15V6.5C10 6.10218 9.84196 5.72064 9.56066 5.43934C9.27936 5.15804 8.89782 5 8.5 5ZM2.5 3.355C2.5 2.73042 2.74812 2.13141 3.18976 1.68976C3.63141 1.24812 4.23042 1 4.855 1H5.145C5.76959 1 6.36859 1.24812 6.81024 1.68976C7.25188 2.13141 7.5 2.73042 7.5 3.355V5H2.5V3.355ZM9 11.15C9 11.6406 8.80509 12.1112 8.45815 12.4581C8.11121 12.8051 7.64065 13 7.15 13H2.85C2.35935 13 1.88879 12.8051 1.54185 12.4581C1.19491 12.1112 1 11.6406 1 11.15V6.5C1 6.36739 1.05268 6.24021 1.14645 6.14645C1.24021 6.05268 1.36739 6 1.5 6H8.5C8.63261 6 8.75979 6.05268 8.85355 6.14645C8.94732 6.24021 9 6.36739 9 6.5V11.15Z" fill="#101010"/>
<path d="M5.5 9.36017V11.0002C5.5 11.1328 5.44732 11.26 5.35355 11.3537C5.25979 11.4475 5.13261 11.5002 5 11.5002C4.86739 11.5002 4.74022 11.4475 4.64645 11.3537C4.55268 11.26 4.5 11.1328 4.5 11.0002V9.36017C4.30936 9.2501 4.16036 9.0802 4.07612 8.87682C3.99188 8.67345 3.9771 8.44795 4.03407 8.23532C4.09105 8.02269 4.21659 7.8348 4.39124 7.70079C4.56588 7.56678 4.77987 7.49414 5 7.49414C5.22013 7.49414 5.43412 7.56678 5.60876 7.70079C5.78341 7.8348 5.90895 8.02269 5.96593 8.23532C6.0229 8.44795 6.00812 8.67345 5.92388 8.87682C5.83964 9.0802 5.69064 9.2501 5.5 9.36017Z" fill="#101010"/>
</svg>
