<svg width="19" height="18" viewBox="0 0 19 18" fill="none" xmlns="http://www.w3.org/2000/svg">
<g clip-path="url(#clip0_56_17124)">
<path d="M4.4024 14.0972C1.60418 11.2894 1.60418 6.71528 4.4024 3.90745L5.89511 5.40016V0.902832H1.39779L3.13528 2.64033C-0.378102 6.14891 -0.378102 11.8558 3.13528 15.3691C5.35275 17.5818 8.43896 18.4026 11.2996 17.817V15.9643C8.91413 16.5835 6.26949 15.9643 4.4024 14.0972Z" fill="#101010"/>
<path d="M15.864 2.64036C13.6465 0.418093 10.5603 -0.402657 7.69971 0.182907V2.03559C10.0852 1.41643 12.7346 2.04519 14.5969 3.90748C17.4047 6.71531 17.4047 11.2894 14.5969 14.0973L13.1042 12.6045V17.1067H17.6063L15.8688 15.3692C19.3774 11.8558 19.3774 6.14894 15.864 2.64036Z" fill="#101010"/>
</g>
<defs>
<clipPath id="clip0_56_17124">
<rect width="18" height="18" fill="white" transform="translate(0.5)"/>
</clipPath>
</defs>
</svg>
