<svg width="16" height="16" viewBox="0 0 16 16" fill="none" xmlns="http://www.w3.org/2000/svg">
<path d="M7.99999 0.666992C6.5496 0.666992 5.13177 1.09708 3.92581 1.90288C2.71985 2.70868 1.77992 3.85399 1.22488 5.19398C0.669834 6.53397 0.524609 8.00846 0.807568 9.43099C1.09053 10.8535 1.78896 12.1602 2.81454 13.1858C3.84013 14.2114 5.1468 14.9098 6.56933 15.1928C7.99186 15.4757 9.46635 15.3305 10.8063 14.7754C12.1463 14.2204 13.2916 13.2805 14.0974 12.0745C14.9032 10.8685 15.3333 9.45072 15.3333 8.00033C15.331 6.05611 14.5577 4.19218 13.1829 2.81741C11.8081 1.44264 9.94421 0.669286 7.99999 0.666992ZM10.4713 10.4717C10.3463 10.5966 10.1768 10.6669 9.99999 10.6669C9.82322 10.6669 9.65368 10.5966 9.52866 10.4717L7.52866 8.47166C7.40363 8.34666 7.33336 8.17712 7.33333 8.00033V4.00033C7.33333 3.82351 7.40356 3.65395 7.52859 3.52892C7.65361 3.4039 7.82318 3.33366 7.99999 3.33366C8.1768 3.33366 8.34637 3.4039 8.4714 3.52892C8.59642 3.65395 8.66666 3.82351 8.66666 4.00033V7.72433L10.4713 9.52899C10.5963 9.65401 10.6665 9.82355 10.6665 10.0003C10.6665 10.1771 10.5963 10.3466 10.4713 10.4717Z" fill="#575756"/>
</svg>
