<svg width="21" height="20" viewBox="0 0 21 20" fill="none" xmlns="http://www.w3.org/2000/svg">
<path d="M18.756 13.492C18.756 16.5253 16.9477 18.3337 13.9144 18.3337H12.9227C12.4644 18.3337 12.0894 17.9587 12.0894 17.5003V12.692C12.0894 12.467 12.2727 12.2753 12.4977 12.2753L13.9644 12.2503C14.081 12.242 14.181 12.1587 14.206 12.042L14.4977 10.4503C14.5227 10.3003 14.406 10.1587 14.2477 10.1587L12.4727 10.1837C12.2393 10.1837 12.056 10.0003 12.0477 9.77533L12.0144 7.73366C12.0144 7.60032 12.1227 7.48367 12.2643 7.48367L14.2643 7.45033C14.406 7.45033 14.5144 7.342 14.5144 7.20034L14.481 5.20032C14.481 5.05865 14.3727 4.95033 14.231 4.95033L11.981 4.98367C10.5977 5.00867 9.4977 6.14199 9.5227 7.52532L9.56436 9.81699C9.57269 10.0503 9.38936 10.2337 9.15603 10.242L8.15602 10.2587C8.01435 10.2587 7.90603 10.367 7.90603 10.5086L7.93103 12.092C7.93103 12.2337 8.03935 12.342 8.18102 12.342L9.18103 12.3253C9.41436 12.3253 9.59768 12.5087 9.60601 12.7337L9.68101 17.4837C9.68934 17.9503 9.31434 18.3337 8.84768 18.3337H6.93102C3.89769 18.3337 2.08936 16.5253 2.08936 13.4837V6.50866C2.08936 3.47532 3.89769 1.66699 6.93102 1.66699H13.9144C16.9477 1.66699 18.756 3.47532 18.756 6.50866V13.492Z" fill="#70F46D"/>
</svg>
