<svg width="21" height="20" viewBox="0 0 21 20" fill="none" xmlns="http://www.w3.org/2000/svg">
<path d="M13.9144 1.66699H6.93102C3.89769 1.66699 2.08936 3.47533 2.08936 6.50866V13.4837C2.08936 16.5253 3.89769 18.3337 6.93102 18.3337H13.906C16.9394 18.3337 18.7477 16.5253 18.7477 13.492V6.50866C18.756 3.47533 16.9477 1.66699 13.9144 1.66699ZM10.4227 13.2337C8.63936 13.2337 7.18936 11.7837 7.18936 10.0003C7.18936 8.21699 8.63936 6.76699 10.4227 6.76699C12.206 6.76699 13.656 8.21699 13.656 10.0003C13.656 11.7837 12.206 13.2337 10.4227 13.2337ZM15.356 5.73366C15.3144 5.83366 15.256 5.92533 15.181 6.00866C15.0977 6.08366 15.006 6.14199 14.906 6.18366C14.806 6.22533 14.6977 6.25033 14.5894 6.25033C14.3644 6.25033 14.156 6.16699 13.9977 6.00866C13.9227 5.92533 13.8644 5.83366 13.8227 5.73366C13.781 5.63366 13.756 5.52533 13.756 5.41699C13.756 5.30866 13.781 5.20033 13.8227 5.10033C13.8644 4.99199 13.9227 4.90866 13.9977 4.82533C14.1894 4.63366 14.481 4.54199 14.7477 4.60033C14.806 4.60866 14.856 4.62533 14.906 4.65033C14.956 4.66699 15.006 4.69199 15.056 4.72533C15.0977 4.75033 15.1394 4.79199 15.181 4.82533C15.256 4.90866 15.3144 4.99199 15.356 5.10033C15.3977 5.20033 15.4227 5.30866 15.4227 5.41699C15.4227 5.52533 15.3977 5.63366 15.356 5.73366Z" fill="white"/>
</svg>
