<svg width="22" height="22" viewBox="0 0 22 22" fill="none" xmlns="http://www.w3.org/2000/svg">
<g clip-path="url(#clip0_13_2647)">
<path d="M11 1.28906C13.2406 1.28997 15.412 2.06545 17.1463 3.48411C18.8806 4.90278 20.0711 6.87739 20.5161 9.07336C20.9611 11.2693 20.6333 13.5516 19.5881 15.5336C18.5429 17.5155 16.8447 19.0751 14.7812 19.9482C12.408 20.9511 9.73363 20.9701 7.34639 20.0011C4.95914 19.0321 3.05461 17.1545 2.05176 14.7812C1.04891 12.408 1.02989 9.73363 1.99889 7.34639C2.96789 4.95914 4.84553 3.05461 7.21875 2.05176C8.41496 1.54554 9.70109 1.28613 11 1.28906ZM11 0C4.92508 0 0 4.92508 0 11C0 17.0749 4.92508 22 11 22C17.0749 22 22 17.0749 22 11C22 4.92508 17.0749 0 11 0Z" fill="#575756"/>
<path d="M14.2093 16.9245C13.5704 16.8815 12.6698 16.6611 11.7906 16.3465C8.69085 15.2371 5.66628 12.2813 5.02347 8.14681C4.90917 7.41075 5.02948 6.73829 5.58722 6.19087C5.77413 6.00782 5.94042 5.80415 6.12304 5.61681C6.81054 4.90911 7.81515 4.89106 8.52714 5.57083C8.75273 5.78567 8.98218 5.99751 9.20218 6.21923C9.50343 6.51631 9.67786 6.91856 9.68884 7.34152C9.69981 7.76448 9.54649 8.17524 9.26105 8.48755C9.08917 8.67833 8.9087 8.85966 8.72737 9.04056C8.52929 9.23821 8.28308 9.35165 8.01882 9.43415C7.69269 9.53641 7.6321 9.67306 7.78034 9.98458C8.71706 11.9465 10.1833 13.3592 12.1791 14.2226C12.4459 14.3377 12.5692 14.2857 12.6766 14.0211C12.9121 13.4406 13.3439 13.0173 13.8402 12.6753C14.4018 12.2886 15.2062 12.3745 15.7382 12.8317C16.0298 13.0823 16.3084 13.3476 16.573 13.6266C16.8577 13.9312 17.0159 14.3327 17.0155 14.7496C17.0151 15.1665 16.8562 15.5677 16.5709 15.8717C16.488 15.962 16.4025 16.05 16.323 16.1429C15.8443 16.6993 15.2371 16.9597 14.2093 16.9245Z" fill="#575756"/>
</g>
<defs>
<clipPath id="clip0_13_2647">
<rect width="22" height="22" fill="white"/>
</clipPath>
</defs>
</svg>
