<svg width="24" height="24" viewBox="0 0 24 24" fill="none" xmlns="http://www.w3.org/2000/svg">
<path d="M10.2465 14.736L15.3451 11.7888L10.2465 8.84165V14.736ZM21.6029 7.04389C21.7306 7.50561 21.8191 8.12451 21.878 8.91042C21.9468 9.69633 21.9762 10.3742 21.9762 10.9636L22.0352 11.7888C22.0352 13.9402 21.878 15.5219 21.6029 16.5337C21.3573 17.4179 20.7875 17.9877 19.9034 18.2333C19.4417 18.361 18.5968 18.4494 17.3001 18.5083C16.023 18.5771 14.8539 18.6066 13.7733 18.6066L12.2113 18.6655C8.09512 18.6655 5.53109 18.5083 4.51923 18.2333C3.63508 17.9877 3.0653 17.4179 2.8197 16.5337C2.69199 16.072 2.60358 15.4531 2.54463 14.6672C2.47587 13.8813 2.44639 13.2035 2.44639 12.614L2.38745 11.7888C2.38745 9.63739 2.54463 8.05575 2.8197 7.04389C3.0653 6.15974 3.63508 5.58996 4.51923 5.34436C4.98095 5.21665 5.8258 5.12823 7.12255 5.06929C8.39966 5.00052 9.56869 4.97105 10.6493 4.97105L12.2113 4.91211C16.3275 4.91211 18.8915 5.06929 19.9034 5.34436C20.7875 5.58996 21.3573 6.15974 21.6029 7.04389Z" fill="white"/>
</svg>
